<?xml version="1.0" encoding="utf-8"?>
<!-- Generator: Adobe Illustrator 20.1.0, SVG Export Plug-In . SVG Version: 6.00 Build 0)  -->
<svg version="1.1" id="Layer_1" xmlns="http://www.w3.org/2000/svg" xmlns:xlink="http://www.w3.org/1999/xlink" x="0px" y="0px"
	 viewBox="0 0 960 560" style="enable-background:new 0 0 960 560;" xml:space="preserve">
<style type="text/css">
	.st0{fill:none;}
	.st1{fill:#39B54A;}
</style>
<g>
	<rect x="304" y="246" class="st0" width="187" height="132"/>
</g>
<g>
	<path class="st1" d="M27.6,199.5c0-0.9,0.1-2,0.4-3.4c0.3-1.4,0.6-2.9,1.1-4.4c0.4-1.5,0.8-3,1.3-4.4c0.5-1.4,0.8-2.5,1.1-3.4
		l50.3-155c0.4-0.5,0.9-1,1.4-1.4c0.4-0.4,1-0.7,1.7-1c0.7-0.3,1.6-0.4,2.5-0.4h2.1c1.8,0,3.4,0.3,4.6,0.9s2.2,1.4,3,2.3
		c0.7,1,1.3,2.1,1.6,3.4c0.3,1.3,0.4,2.7,0.4,4.1c0,1.2-0.1,2.5-0.3,3.9c-0.2,1.4-0.4,2.7-0.7,4c-0.2,1.3-0.5,2.5-0.8,3.6
		c-0.3,1.1-0.5,1.9-0.7,2.6l-25.8,82.8l11.8-1c13.2-2.7,26.6-5.5,40.3-8.5c13.7-2.9,27.1-5.7,40.3-8.5c1.5-0.7,2.8-2.1,4-4.3
		c1.2-2.2,2.3-5,3.4-8.5c1.1-3.5,2.3-7.6,3.7-12.3c1.3-4.7,2.9-9.9,4.8-15.7l2.6-8c1.1-3.9,2-7.9,2.9-12c0.9-4.1,1.9-7.8,3.2-11.1
		c1.2-3.3,2.8-6.1,4.7-8.2c1.9-2.1,4.3-3.2,7.3-3.2c4.2,0,7.5,1.3,9.8,3.8c2.3,2.5,3.5,5.7,3.5,9.5c0,2.4-1,6.5-2.9,12.1
		c-1.9,5.7-4.4,12.6-7.3,20.8c-1.1,3-2.2,6.1-3.5,9.3c-1.2,3.2-2.4,6.2-3.4,9.2c-1,2.9-1.9,5.6-2.5,8c-0.7,2.4-1,4.4-1,5.9
		c0,1.4,0.2,2.8,0.6,4.1c0.4,1.4,0.6,2.8,0.6,4.4c0,3.5-1,6.4-3,8.7c-2,2.3-4.7,4.7-8.2,7.1c-0.2,0.6-0.4,1.6-0.7,2.9
		c-0.3,1.3-0.6,2.7-1.1,4.1l-1.6,5.9c-1.2,4.3-2.1,8.6-2.9,12.8c-0.8,4.3-1.5,8.5-2.1,12.7s-1.3,8.4-2,12.6
		c-0.7,4.2-1.6,8.4-2.7,12.5c-0.4,1.6-1.1,2.9-2.2,4.1c-1,1.2-2.2,2.2-3.6,3.1c-1.4,0.9-2.8,1.5-4.3,2s-2.9,0.7-4.2,0.7
		c-2,0-3.6-0.4-4.8-1.3c-1.2-0.9-2.2-1.9-2.9-3c-0.7-1.2-1.2-2.4-1.4-3.6c-0.2-1.2-0.4-2.3-0.4-3.1c0-0.9,0.1-2.5,0.4-4.6
		c0.3-2.1,0.7-4.6,1.2-7.5c0.5-2.9,1.1-6,1.7-9.3c0.7-3.3,1.3-6.7,2-10.1c1.6-7.9,3.4-16.6,5.5-26h-0.9c-2.2,0-4.5,0.2-7,0.6
		c-2.5,0.4-5.5,1-8.9,1.8c-1.6,0.5-3.9,1.1-7,1.9c-3.1,0.8-6.6,1.7-10.6,2.7c-4,1-8.3,2.1-12.8,3.3c-4.6,1.2-9.2,2.3-13.7,3.5
		l-33.6,8.6c-1.6,3-3,6.3-4.4,9.9c-1.4,3.5-2.6,7.1-3.8,10.7c-1.2,3.6-2.2,7.2-3.2,10.7c-1,3.5-1.8,6.8-2.7,9.9
		c-0.2,0.9-0.8,1.8-1.6,2.8c-0.8,1-1.7,1.9-2.7,2.8c-1,0.9-2.1,1.6-3.2,2.1c-1.1,0.5-2.2,0.8-3.2,0.8c-1.8,0-3.3-0.4-4.5-1.1
		c-1.2-0.7-2.2-1.7-2.9-2.9c-0.7-1.2-1.3-2.6-1.6-4.1C27.7,202.5,27.6,201,27.6,199.5z"/>
	<path class="st1" d="M217.8,158.4c1.2-4.7,3.2-9.8,5.8-15.1c2.6-5.3,6-10.7,10.2-16.2c4.2-5.4,9.3-10.8,15.2-16
		c5.9-5.2,12.8-10.1,20.5-14.6c1.2-0.7,3.1-1.5,5.7-2.3c2.6-0.8,5.2-1.3,7.9-1.5c3.2-3.3,7.6-4.9,13-4.9c6.5,0,11.9,1.5,16.3,4.6
		c4.4,3.1,8.1,7.3,11,12.5c0.9,1.7,1.8,3.4,2.5,5c0.8,1.6,1.4,3.4,2,5.2c0.5,1.8,1,3.8,1.3,5.9c0.3,2.1,0.5,4.5,0.5,7.1
		c0,6.1-1,12.4-3.1,18.8c-2.1,6.4-5,12.6-8.8,18.7c-3.8,6.1-8.4,11.9-13.8,17.4c-5.4,5.6-11.4,10.6-18.1,15c-4.5,3-9.4,5.4-14.8,7.1
		c-5.4,1.7-11.5,2.5-18.2,2.5c-6.4,0-11.9-0.8-16.6-2.4c-4.7-1.6-8.6-3.9-11.7-6.8c-3.1-3-5.4-6.5-7-10.6c-1.5-4.1-2.3-8.7-2.3-13.8
		C215.5,169.2,216.3,164,217.8,158.4z M238.4,159.9c-0.5,1.8-0.8,3.5-1.1,5.1c-0.2,1.6-0.3,3.1-0.3,4.6c0,2.6,0.4,5,1.1,7.2
		c0.7,2.2,1.8,4.1,3.4,5.7c1.6,1.6,3.5,2.8,5.9,3.7c2.4,0.9,5.2,1.3,8.6,1.3c6.3,0,12.1-1.5,17.6-4.5c5.4-3,10.2-6.7,14.5-11.3
		c4.2-4.5,7.8-9.3,10.6-14.5c2.9-5.2,4.9-9.9,6-14.3c0.7-2.7,1.4-5.3,1.9-7.7c0.5-2.4,0.8-4.6,0.8-6.6c0-2-0.4-3.9-1.2-5.7
		c-0.8-1.7-1.8-3.7-3-5.9c-0.7-1.3-1.5-2.7-2.2-4.1c-0.7-1.4-1.4-2.9-2-4.3c-0.7,1.1-1.4,2-2.1,2.9c-0.7,0.8-1.9,1.6-3.4,2.2
		c-1.5,0.7-3.5,1.3-6.1,1.8c-2.6,0.5-5.9,1-10.1,1.4c-2.7,0.9-5.5,2.2-8.3,4c-2.8,1.8-5.6,3.9-8.3,6.3c-2.7,2.4-5.3,5-7.7,7.8
		c-2.4,2.8-4.6,5.7-6.6,8.6c-1.9,2.9-3.6,5.8-5.1,8.6C240,155,238.9,157.6,238.4,159.9z"/>
	<path class="st1" d="M351.1,195.3c2.5-9.1,4.9-17.6,7.2-25.4c2.3-7.9,4.6-15.4,6.8-22.6c2.2-7.2,4.3-14.2,6.4-20.9
		c2.1-6.8,4.1-13.6,6-20.6c0.7-2.7,1.2-5.3,1.3-7.9c0.1-2.5,0.5-5.1,1.2-7.9c0.3-0.9,0.9-1.8,1.8-2.5c0.9-0.7,1.8-1.4,2.9-1.9
		c1.1-0.5,2.2-1,3.4-1.3c1.2-0.3,2.3-0.5,3.4-0.5c2.3,0,4.2,0.3,5.8,0.8c1.5,0.5,2.8,1.2,3.7,2c1,0.9,1.6,1.9,2,3.1
		c0.4,1.2,0.6,2.5,0.6,4c0,2.6-0.5,5.3-1.4,8c-0.9,2.7-2,5.6-3.4,8.8c3.9-2.9,7.9-5.6,12-8.2c4.1-2.6,8.3-4.8,12.7-6.8
		c4.3-1.9,8.8-3.5,13.3-4.7c4.5-1.2,9.3-1.7,14.1-1.7c2.2,0,4.5,0.3,6.7,1c2.2,0.7,4.2,1.7,6,3.1c1.8,1.4,3.3,3.2,4.5,5.5
		c1.2,2.3,1.9,5,2,8.3c3.6-2.3,7.2-4.5,11-6.8c3.8-2.3,7.7-4.4,11.6-6.2c3.9-1.8,7.9-3.3,11.8-4.4c3.9-1.1,7.8-1.7,11.5-1.7
		c5.5,0,10.1,0.7,13.7,2c3.6,1.4,6.5,3.2,8.6,5.5c2.1,2.3,3.6,5,4.5,8c0.9,3,1.3,6.3,1.3,9.7c0,3.7-0.4,7.6-1.1,11.5
		c-0.7,4-1.6,7.7-2.5,11.3c-2.4,9-5.1,17.6-8.1,25.6c-3,8-6.2,16.2-9.7,24.4c-0.8,1.9-1.7,4-2.6,6.2c-0.9,2.2-2,4.2-3.2,6
		c-1.2,1.8-2.6,3.3-4.2,4.5c-1.6,1.2-3.5,1.8-5.6,1.8c-4.9,0-8.2-0.8-10.1-2.3s-2.7-3.8-2.7-6.6c0-0.8,0-1.7,0.1-2.7
		c0.1-1,0.3-2,0.6-2.9c0.3-1.2,1.1-2.9,2.2-5.1c1.2-2.2,2.4-4.6,3.8-7.2c1.4-2.6,2.7-5.1,4-7.8c1.3-2.6,2.3-4.9,3-6.8
		c1.1-3.3,2.3-7.2,3.8-11.6c1.4-4.4,2.8-8.8,4.2-13.3c1.3-4.5,2.4-8.7,3.3-12.7c0.9-4,1.3-7.2,1.3-9.7c0-1.2-0.1-2.3-0.4-3.5
		c-0.2-1.2-0.7-2.2-1.3-3c-0.6-0.9-1.5-1.6-2.6-2.1c-1.1-0.5-2.5-0.8-4.3-0.8c-2.5,0-5.4,0.7-8.9,2c-3.4,1.3-7,3.1-10.7,5.2
		c-3.7,2.1-7.3,4.5-10.7,7.2c-3.5,2.7-6.5,5.3-8.9,8c-1.7,1.9-3.4,3.4-5,4.5c-1.6,1.2-3.1,2.1-4.7,2.7c-0.2,0.3-0.6,1.3-1.2,3.1
		c-0.7,1.7-1.4,3.8-2.4,6.3c-0.9,2.4-1.9,5.1-2.9,7.9c-1,2.8-1.9,5.5-2.8,7.9c-0.9,2.4-1.6,4.5-2.2,6.2c-0.6,1.7-0.9,2.6-0.9,2.7
		c-0.6,2.2-1.1,4.4-1.5,6.7c-0.4,2.3-0.8,4.5-1.1,6.6c-0.3,2.1-0.6,4.3-0.9,6.7c-0.3,2.4-0.9,4.6-1.7,6.6c-0.9,2.1-2.2,3.8-4,5.1
		c-1.8,1.3-4.3,2-7.5,2c-1.7,0-3.2-0.4-4.5-1.2c-1.4-0.8-2.5-1.8-3.5-3c-1-1.2-1.8-2.6-2.4-4.1c-0.6-1.5-0.9-3.1-1-4.6
		c1.9-7,3.8-13.3,5.6-18.9c1.8-5.6,3.6-11,5.5-16.1c1.8-5.1,3.6-10.3,5.3-15.5c1.7-5.2,3.4-10.9,5-17.1c0.4-1.5,0.7-2.9,1-4.4
		c0.2-1.4,0.4-2.7,0.4-3.8c0-1.9-0.4-3.4-1.2-4.6c-0.8-1.2-2.3-1.8-4.3-1.8c-3.4,0-6.8,0.6-10.1,1.9s-7,3.3-10.9,6
		c-3.9,2.7-8.2,6.2-13,10.4c-4.8,4.2-10.2,9.2-16.4,15c-0.7,1.2-1.5,3.3-2.6,6.5c-1.1,3.2-2.2,6.6-3.3,10.1c-1.1,3.6-2.1,6.9-3,10
		c-0.9,3.1-1.5,5.1-1.7,6.1c-0.9,3.3-1.5,6-1.9,8.2c-0.3,2.2-0.6,4.2-0.9,6c-0.2,0.9-0.4,2.5-0.7,4.6c-0.3,2.1-0.9,4.3-1.8,6.5
		c-0.9,2.2-2.1,4.1-3.7,5.8c-1.6,1.7-3.6,2.5-6.2,2.5c-3.8,0-6.9-1-9.4-2.9c-2.4-1.9-3.7-4.4-3.7-7.3c0-0.5,0-1,0.1-1.5
		C350.8,196.4,350.9,195.9,351.1,195.3z"/>
	<path class="st1" d="M567.5,158c0-3.3,1-6.2,2.9-8.5c1.9-2.3,4.4-3.9,7.6-4.7c0.9-1.7,2.3-4,4.2-6.9c1.9-2.9,4.3-6.1,7.1-9.5
		c2.8-3.4,6-6.9,9.6-10.3c3.6-3.5,7.6-6.6,11.9-9.4c4.3-2.8,9-5.1,14-6.9c5-1.8,10.3-2.7,16-2.7c4.8,0,9,0.5,12.5,1.6
		c3.6,1.1,6.5,2.6,8.8,4.5c2.3,1.9,4.1,4.3,5.2,6.9c1.2,2.7,1.7,5.6,1.7,8.7c0,2.6-0.4,5.2-1.1,7.6c-1.2,4.4-3.3,8.2-6.5,11.4
		c-3.1,3.3-6.8,6.1-11.1,8.6c-4.3,2.4-8.9,4.5-13.9,6.1c-5,1.6-10,3-15,4.1c-5,1.1-9.8,1.9-14.5,2.5c-4.6,0.6-8.6,1-12,1.3
		c-0.7,1.4-1.4,3.2-1.9,5.3c-0.5,2.1-0.8,4.2-0.8,6.2c0,4.5,1.9,8,5.7,10.5c3.8,2.5,9.1,3.7,15.8,3.7c3.9,0,7.6-0.4,11.2-1.2
		c3.6-0.8,6.9-1.9,10.1-3.1c3.2-1.3,6.2-2.7,9-4.2c2.8-1.5,5.4-3,7.7-4.5c3-1.9,5.8-3.4,8.5-4.7c2.7-1.3,5.1-1.9,7.1-1.9
		c2.1,0,3.4,0.5,4,1.5c0.6,1,0.9,2,0.9,3.1c0,0.6,0,1.2-0.1,1.8c0,0.6-0.1,1.1-0.2,1.5c-0.4,2-1.2,4-2.5,6.1c-1.2,2-2.8,3.8-4.7,5.2
		c-8.6,6.4-17.4,10.9-26.5,13.6c-9.1,2.7-18.7,4.1-29,4.1c-2,0-4.3-0.1-7-0.4c-2.7-0.2-5.5-0.7-8.4-1.4c-2.9-0.7-5.8-1.7-8.6-3
		c-2.8-1.3-5.3-3.1-7.5-5.2c-2.2-2.2-4-4.9-5.3-8c-1.4-3.2-2-7-2-11.5c0-3.7,0.5-7.7,1.6-12.2c-1.1-0.2-2.1-0.7-3-1.6
		C568,161,567.5,159.7,567.5,158z M645.2,125.7c0.2-0.4,0.2-0.7,0.2-1c0-0.3,0-0.7,0-1c0-2.1-0.8-3.7-2.5-4.7c-1.7-1-3.6-1.6-6-1.6
		c-3.6,0-7.2,0.9-10.7,2.7c-3.5,1.8-6.8,4-9.9,6.7c-3.1,2.7-5.9,5.6-8.3,8.6c-2.4,3.1-4.3,5.9-5.6,8.3c6-0.5,11.4-1.2,16.4-2.3
		c5-1,9.3-2.4,13-4c3.7-1.6,6.7-3.4,8.9-5.4C643.1,130.1,644.6,128,645.2,125.7z"/>
	<path d="M348.7,479.4c1.6-5.9,3.8-12.5,6.6-19.7c2.8-7.2,6.1-14.8,9.7-22.6c3.7-7.9,7.7-15.8,12.2-23.9c4.4-8.1,9-16,13.8-23.6
		c4.8-7.7,9.6-14.9,14.6-21.7c5-6.8,9.9-12.9,14.8-18.3c1.4-1.5,3.2-3.3,5.3-5.5c2.1-2.2,4.5-4.4,7.1-6.8c2.6-2.3,5.3-4.6,8.2-6.9
		c2.9-2.3,5.7-4.4,8.6-6.2c2.9-1.8,5.7-3.3,8.4-4.4c2.7-1.1,5.3-1.7,7.6-1.7c3.1,0,6,0.5,8.6,1.5c2.6,1,4.8,2.4,6.7,4.3
		s3.3,4.1,4.3,6.7c1,2.6,1.6,5.5,1.6,8.6c0,1.3-0.1,2.6-0.3,4c-0.2,1.3-0.5,2.7-0.8,4.1l-13.8,65.1c1.2-1.8,3-4.2,5.2-7.3
		c2.2-3.1,4.8-6.5,7.6-10.3c2.8-3.8,5.8-7.7,8.8-11.8c3.1-4.1,6.1-8,9-11.8c2.9-3.8,5.6-7.3,8.1-10.4c2.5-3.1,4.5-5.7,6.1-7.6
		l2.2-2.7c1.5-1.8,3.3-3.9,5.5-6.3c2.2-2.4,4.5-4.9,7.1-7.6c2.6-2.6,5.4-5.2,8.3-7.8s5.8-4.9,8.8-6.9c3-2,5.9-3.7,8.8-5
		c2.9-1.3,5.7-1.9,8.3-1.9c2,0,3.6,0.4,5,1.3c1.3,0.9,2.4,2,3.2,3.4c0.8,1.4,1.4,3.1,1.7,5.1c0.3,1.9,0.5,4,0.5,6.1
		c0,3.3-0.3,6.6-0.9,9.9c-0.6,3.3-1.2,6.4-2,9.1c-0.4,2.2-1,5.3-1.7,9.3c-0.7,4-1.5,8.7-2.5,13.9c-1,5.2-2,10.9-3,17
		c-1.1,6.1-2.2,12.3-3.3,18.6c-1.1,6.3-2.2,12.5-3.4,18.7c-1.1,6.1-2.2,11.9-3.1,17.2c-1,5.3-1.8,10.1-2.6,14.3
		c-0.8,4.2-1.4,7.5-1.9,9.8c-0.2,1.1-0.6,2.6-1.2,4.4c-0.5,1.9-1.3,3.7-2.4,5.5c-1,1.8-2.4,3.3-4.1,4.7c-1.7,1.3-3.8,2-6.3,2
		c-1.3,0-2.6-0.4-3.8-1.2c-1.2-0.8-2.3-1.8-3.2-3.1c-1-1.2-1.7-2.6-2.2-4c-0.5-1.4-0.8-2.7-0.9-3.9l25.8-115.2
		c0.2-1.1,0.5-2.1,0.6-2.9c0.2-0.9,0.2-1.7,0.2-2.4c0-0.9-0.1-1.6-0.3-2.3c-0.2-0.7-0.4-1.4-0.6-2c-0.2-0.7-0.5-1.3-0.7-1.9
		c-3.7,2.6-7.7,6-12,10.1c-4.3,4.1-8.6,8.6-12.9,13.6s-8.7,10.3-13,16c-4.3,5.6-8.5,11.3-12.3,17c-3.1,4.4-6.4,9.1-9.9,14
		c-3.5,4.9-7.1,9.8-10.6,14.8c-3.6,4.9-7,9.9-10.4,14.8c-3.4,4.9-6.4,9.7-9.1,14.2c-1.3,2.2-2.7,5-4.1,8.4c-1.4,3.4-3,6.8-4.7,10
		c-1.7,3.3-3.5,6.1-5.5,8.4c-1.9,2.3-4.2,3.5-6.6,3.5c-1.9,0-3.5-0.3-4.8-0.8c-1.3-0.5-2.3-1.3-3-2.2c-0.7-0.9-1.3-1.9-1.6-3.1
		c-0.3-1.2-0.5-2.5-0.5-3.9c0-1.8,0.2-3.6,0.6-5.4c0.4-1.8,0.8-3.5,1.2-5.1c1.7-6.8,3.6-13.6,5.5-20.4c1.9-6.8,3.9-13.7,5.9-20.8
		c2-7.1,4.1-14.4,6.3-22c2.2-7.6,4.3-15.6,6.6-24.2c0.6-2.4,1.2-5.1,2-8.1c0.7-3,1.4-6,2.1-9.1c0.7-3.1,1.2-6,1.6-8.9
		c0.4-2.9,0.6-5.4,0.6-7.7c0-2-0.2-3.6-0.5-4.8c-0.3-1.2-1-1.8-1.9-1.8c-3.1,0-6.3,1.1-9.7,3.2c-3.4,2.1-6.8,5-10.3,8.5
		c-3.5,3.5-6.9,7.5-10.3,12c-3.4,4.5-6.6,9.2-9.7,13.9c-3.1,4.8-5.9,9.5-8.6,14.2c-2.6,4.7-4.9,8.9-6.8,12.6c-0.4,0.8-1,1.8-1.8,3.2
		c-0.8,1.4-1.8,3.3-3.1,5.7c-1.3,2.4-2.9,5.6-4.7,9.4c-1.9,3.8-4.1,8.6-6.6,14.5c-2.5,5.8-5.4,12.8-8.8,20.9
		c-3.3,8.1-7,17.6-11.2,28.5c-0.7,1.9-2,3.4-3.9,4.5s-3.8,1.8-5.8,1.8c-4.3,0-7.5-1.1-9.5-3.3c-2-2.2-3-4.9-3-8
		C348.1,482.6,348.3,481.1,348.7,479.4z"/>
	<path d="M650.3,484.6c0-2.3,0.3-5,0.9-8.1c0.6-3.1,0.9-7.1,0.9-11.7c-2.7,1.9-5.8,4.1-9.1,6.6c-3.3,2.6-6.7,5-10.3,7.3
		c-3.6,2.3-7.1,4.3-10.6,5.9c-3.5,1.6-6.8,2.4-9.9,2.4c-2.5,0-4.8-0.3-7.1-1c-2.2-0.7-4.1-1.6-5.7-2.8c-4.4-3.3-7.6-6.5-9.5-9.8
		c-1.9-3.3-2.9-7.1-2.9-11.4c0-1.9,0.2-4,0.6-6.1s0.9-4.5,1.7-7.2c3.1-12.3,8.5-23.7,16.2-34.1c7.7-10.5,17.1-19.4,28.5-26.8
		c4.4-2.9,8.8-4.7,13.2-5.5c4.4-0.8,8.7-1.2,13-1.2c1.9,0,4,0.1,6.4,0.3c2.4,0.2,4.5,0.5,6.4,0.7c1.9-0.4,3.5-0.7,4.7-0.8
		c1.2-0.2,2.5-0.2,3.8-0.2c2.5,0,4.5,0.3,6.2,0.9c1.7,0.6,3,1.5,4,2.5s1.7,2.3,2.2,3.6c0.5,1.4,0.7,2.8,0.7,4.3c0,2-0.3,3.9-1,5.8
		c-0.7,1.8-1.3,3.7-2,5.5L675,465.2c-0.3,3.3-0.6,6.4-0.9,9.2s-0.7,5.4-1.5,7.8c-0.2,0.7-0.6,1.6-0.9,2.6c-0.4,1-1,2.1-1.8,3
		c-0.8,1-1.9,1.8-3.1,2.5c-1.2,0.7-2.9,1-4.8,1c-2.6,0-4.6-0.2-6.1-0.5c-1.5-0.3-2.7-0.8-3.5-1.3c-0.8-0.6-1.4-1.3-1.6-2.1
		S650.3,485.7,650.3,484.6z M609.1,449.4c-0.3,1.1-0.7,2.6-1.1,4.7c-0.4,2-0.6,4-0.6,6.1c0,2.1,0.3,4,1,5.7c0.7,1.7,2.1,2.5,4.3,2.5
		c3.5,0,6.7-0.7,9.7-2.2c3-1.4,5.9-3.2,8.5-5.2c3.6-2.7,7.2-5.8,10.9-9.2c3.7-3.4,7.2-6.9,10.4-10.7c3.3-3.7,6.2-7.6,8.7-11.5
		c2.5-3.9,4.4-7.8,5.5-11.7c0.7-2.3,1.2-4.9,1.7-7.8c0.5-3,0.7-5.6,0.7-7.9c0-1-0.2-2-0.7-3c-0.5-1-1.4-1.5-2.9-1.5
		c-4.1,0-8.1,0.7-12.2,2.2c-4.1,1.5-8,3.5-11.9,5.9c-3.8,2.5-7.4,5.4-10.9,8.8c-3.4,3.4-6.6,7-9.4,10.8c-2.8,3.8-5.2,7.8-7.3,11.9
		C611.7,441.5,610.2,445.5,609.1,449.4z"/>
	<path d="M711.9,449.6c1.1-4.2,2.5-8.4,4.3-12.6c1.8-4.2,4-8.4,6.6-12.5c2.6-4.1,5.8-8.1,9.4-12.1c3.6-3.9,7.9-7.7,12.8-11.3
		c3.3-2.5,6.8-4.8,10.5-7.1c3.7-2.2,7.4-4.1,11.2-5.8c3.8-1.6,7.6-2.9,11.5-3.9c3.8-1,7.6-1.5,11.4-1.5c2.7,0,5.2,0.2,7.3,0.6
		c2.1,0.4,4.1,1,6,1.8c0.8-2.7,3-10,6.6-21.9c3.6-11.9,8-28.5,13.2-49.7c0.9-2.1,2.2-3.8,3.8-5.2c1.7-1.4,3.6-2.1,6-2.1
		c1.7,0,3.3,0.1,4.8,0.4c1.6,0.3,3,0.8,4.2,1.6c1.2,0.8,2.2,1.9,3,3.3c0.7,1.4,1.1,3.2,1.1,5.5L820.7,411c-0.7,2.6-1.4,6.2-2.1,10.7
		c-0.7,4.5-1.3,9.2-1.9,14.2c-0.6,5-1,9.9-1.4,14.8c-0.3,4.9-0.5,9-0.5,12.5c0,4.4-0.5,8.7-1.6,12.9c-0.5,1.9-1,3.4-1.6,4.7
		c-0.5,1.3-1.3,2.3-2.2,3.1c-0.9,0.8-2,1.4-3.4,1.7c-1.4,0.4-3.1,0.5-5.2,0.5c-2.4,0-4.3-0.2-5.6-0.7c-1.3-0.5-2.3-1.1-3-1.9
		c-0.7-0.8-1.1-1.7-1.2-2.8c-0.1-1-0.2-2.2-0.2-3.4c0-1.2-0.1-2.4-0.2-3.7c-0.1-1.3-0.5-2.5-1.1-3.7c-1,0.6-2.4,1.4-4.1,2.4
		c-1.7,1-3.5,2-5.3,3.1c-1.8,1-3.5,2-5,2.9c-1.6,0.9-2.7,1.5-3.5,1.9c-1.9,1-4.1,2.1-6.5,3.2c-2.4,1.1-5,2.2-7.8,3.1
		c-2.8,1-5.7,1.8-8.7,2.4c-3,0.6-6.1,0.9-9.1,0.9c-3.7,0-7.3-0.6-10.9-1.8c-3.5-1.2-6.7-3-9.4-5.4c-2.8-2.4-5-5.5-6.6-9.2
		c-1.7-3.7-2.5-8-2.5-13c0-1.8,0.1-3.6,0.3-5.3C710.9,453.8,711.3,451.8,711.9,449.6z M733.3,448.7c-0.7,2.3-1,4.6-1,6.8
		c0,2.3,0.2,4.4,0.6,6.4c0.4,2,1.2,3.7,2.3,5.2c1.1,1.5,2.6,2.7,4.5,3.6c1.9,0.9,4.3,1.3,7.3,1.3c1.7,0,3.4-0.3,5.3-0.8
		c1.9-0.5,3.8-1.2,5.6-2c1.9-0.8,3.6-1.7,5.2-2.6c1.6-0.9,3-1.7,4.2-2.4c3.1-1.9,6.1-3.8,8.8-5.7c2.7-1.9,5.1-3.9,7.3-6.1
		c2.2-2.2,4-4.6,5.6-7.3c1.6-2.7,2.9-5.8,3.9-9.3c0.8-3.1,1.6-5.9,2.2-8.5c0.6-2.6,1.2-5.1,1.7-7.5c0.5-2.4,1-5,1.4-7.5
		c0.4-2.6,0.8-5.4,1.2-8.5c-0.4-0.5-1-0.9-1.7-1.3c-0.7-0.4-1.8-0.6-3.2-0.6c-3.3,0-7,0.5-10.9,1.6c-4,1-8,2.5-12.2,4.5
		c-4.2,1.9-8.3,4.3-12.3,7.1c-4,2.8-7.7,5.9-11.2,9.4c-3.4,3.5-6.4,7.3-9,11.4C736.4,439.8,734.5,444.1,733.3,448.7z"/>
	<path d="M850.3,444.6c0-3.3,1-6.2,2.9-8.5c1.9-2.3,4.4-3.9,7.6-4.7c0.9-1.7,2.3-4,4.2-6.9c1.9-2.9,4.3-6.1,7.1-9.5
		c2.8-3.4,6-6.9,9.6-10.3c3.6-3.5,7.6-6.6,11.9-9.4c4.3-2.8,9-5.2,14-6.9c5-1.8,10.3-2.7,16-2.7c4.8,0,9,0.5,12.5,1.6
		c3.6,1.1,6.5,2.6,8.8,4.5c2.3,1.9,4.1,4.3,5.2,6.9c1.2,2.7,1.7,5.6,1.7,8.7c0,2.6-0.4,5.2-1.1,7.6c-1.2,4.4-3.3,8.2-6.5,11.4
		c-3.1,3.3-6.8,6.1-11.1,8.6c-4.3,2.4-8.9,4.5-13.9,6.1c-5,1.6-10,3-15,4.1c-5,1.1-9.8,1.9-14.5,2.5c-4.6,0.6-8.6,1-12,1.3
		c-0.7,1.4-1.4,3.2-1.9,5.3c-0.5,2.1-0.8,4.2-0.8,6.2c0,4.5,1.9,8,5.7,10.5c3.8,2.5,9.1,3.7,15.8,3.7c3.9,0,7.6-0.4,11.2-1.2
		c3.6-0.8,6.9-1.9,10.1-3.1c3.2-1.3,6.2-2.7,9-4.2c2.8-1.5,5.4-3,7.7-4.5c3-1.9,5.8-3.4,8.5-4.7c2.7-1.3,5.1-1.9,7.1-1.9
		c2.1,0,3.4,0.5,4,1.5c0.6,1,0.9,2,0.9,3.1c0,0.6,0,1.2-0.1,1.8c0,0.6-0.1,1.1-0.2,1.5c-0.4,2-1.2,4-2.5,6.1c-1.2,2-2.8,3.8-4.7,5.2
		c-8.6,6.4-17.4,10.9-26.5,13.6s-18.7,4.1-29,4.1c-2,0-4.3-0.1-7-0.3c-2.7-0.2-5.5-0.7-8.4-1.4c-2.9-0.7-5.8-1.7-8.6-3
		c-2.8-1.3-5.3-3.1-7.5-5.2c-2.2-2.2-4-4.9-5.3-8c-1.4-3.2-2-7-2-11.5c0-3.7,0.5-7.7,1.6-12.2c-1.1-0.2-2.1-0.7-3-1.6
		C850.7,447.6,850.3,446.3,850.3,444.6z M928,412.3c0.2-0.4,0.2-0.7,0.2-1c0-0.3,0-0.7,0-1c0-2.1-0.8-3.7-2.5-4.7
		c-1.7-1-3.6-1.6-6-1.6c-3.6,0-7.2,0.9-10.7,2.7c-3.5,1.8-6.8,4-9.9,6.7c-3.1,2.7-5.9,5.6-8.3,8.6c-2.4,3.1-4.3,5.9-5.6,8.3
		c6-0.5,11.4-1.2,16.4-2.3s9.3-2.4,13-4c3.7-1.6,6.7-3.4,8.9-5.4C925.8,416.7,927.3,414.6,928,412.3z"/>
</g>
<g>
</g>
<g>
</g>
<g>
</g>
<g>
</g>
<g>
</g>
<g>
</g>
<g>
</g>
<g>
</g>
<g>
</g>
<g>
</g>
<g>
</g>
<g>
</g>
<g>
</g>
<g>
</g>
<g>
</g>
</svg>
